<svg xmlns="http://www.w3.org/2000/svg" viewBox="0 0 5107.52 777.89"><defs><style>.cls-1,.cls-2{fill:#231815;}.cls-2,.cls-3{fill-rule:evenodd;}.cls-3{fill:#ef8200;}</style></defs><title>资源 1</title><g id="图层_2" data-name="图层 2"><g id="图层_1-2" data-name="图层 1"><path class="cls-1" d="M2936.59,317.92c-24.1,72.3-60.25,127.25-109.42,168.23,49.17,32.29,110.87,54,186.06,65.55-7.71,7.23-16.87,22.66-21.21,32.3-79.53-13.5-143.64-38.08-194.74-75.2-53.5,36.15-118.57,60.25-197.14,77.61-3.38-8.68-13-25.07-19.76-33.74,75.67-13.5,137.85-34.71,188-66.52-46.75-42.42-81-97.37-104.59-165.34l31.81-9.16c21.21,63.15,54.47,114.24,102.67,153.29,46.76-38.08,80.5-89.18,101.71-156.66Zm-237.16-84.84h-109.9v-34.7h109.9V146.8h35.19v51.58H2859V146.8h35.19v51.58h112.31v34.7H2894.17v61.7H2859v-61.7H2734.62v61.7h-35.19Z"/><path class="cls-1" d="M2597.89,590.61l-1.12-2.89c-3.24-8.31-12.59-24.27-19.25-32.83l-3.68-4.73,5.9-1.06c75.24-13.41,135.07-34.21,182.68-63.51-45-42-78.42-95.54-102.07-163.59l-1.25-3.61,38.8-11.17,1.11,3.28c21.19,63.1,53.67,112.12,99.23,149.76,45.68-38,77.84-88.07,98.26-153.06l1-3.3,43.7,11.5-1.22,3.66c-23.54,70.63-58.5,125.21-106.79,166.7,48.23,30.69,107.35,51.1,180.55,62.37l7.35,1.13-5.43,5.08c-6.89,6.47-15.78,20.91-20.38,31.14l-1.15,2.55-2.75-.47c-79.59-13.5-143.15-37.83-194.21-74.35-51.1,34-113.56,58.46-196.29,76.73Zm-11.19-35.42a195.18,195.18,0,0,1,15.59,27c81.49-18.25,142.86-42.56,193-76.42l2.1-1.41,2,1.48c49.91,36.26,112.25,60.51,190.5,74.09a140.71,140.71,0,0,1,16.1-25.74c-73.23-12-132.44-33.27-180.83-65.05l-4.07-2.68,3.75-3.12c48.32-40.27,83.37-93.6,107.06-162.94l-29.56-7.78c-21.26,65.86-54.59,116.62-101.83,155.09l-2.27,1.86-2.29-1.85c-47.06-38.13-80.68-87.76-102.71-151.67l-24.81,7.15c23.78,66.91,57.28,119.36,102.34,160.24l3.52,3.19-4,2.54C2722.43,519.58,2662.32,541.19,2586.7,555.19ZM2897.79,298.4h-42.42V236.7H2738.24v61.7h-42.42V236.7h-109.9V194.76h109.9V143.19h42.42v51.57h117.13V143.19h42.42v51.57H3010.1V236.7H2897.79Zm-35.19-7.23h28v-61.7h112.32V202H2890.55V150.42h-28V202H2731V150.42h-28V202h-109.9v27.47h109.9v61.7h28v-61.7H2862.6Z"/><path class="cls-1" d="M3464.4,539.65c24.1,0,27.48-22.17,30.85-110.86,9.16,6.74,24.1,14,34.23,16.87-4.34,95.44-14,128.7-62.67,128.7h-73.26c-46.28,0-58.81-14.46-58.81-68V148.73h37.12V329.49c45.31-28,92.06-64.59,121-94l29.89,30.85c-41.46,35.19-98.33,71.82-150.87,101.23V507.84c0,27,3.85,31.81,25.54,31.81Zm-168.22-51.58c-.48,11.57.48,27.48,2.41,36.16-130.63,42.41-148,50.13-159.07,58.8-2.89-9.16-11.57-24.58-17.84-30.85,7.72-5.3,19.77-16.39,19.77-37.11V151.62h37.11V294.78h119.06V330H3178.56V524.71Z"/><path class="cls-1" d="M3137.64,589.1l-1.57-5c-2.84-9-11.39-23.83-16.94-29.38l-3.08-3.07,3.59-2.47c12.07-8.3,18.19-19.78,18.19-34.13V148h44.35V291.17h119.06v42.42H3182.18v186.2L3300,483.09l-.21,5.13c-.49,11.69.54,27.16,2.33,35.22l.71,3.21-3.13,1c-129.32,42-147.44,50-157.95,58.21ZM3127,552.74c5.29,6.53,11,16.72,14.25,24.58,12.41-8.18,37.91-18.09,153.17-55.55a180.55,180.55,0,0,1-2-28.74L3175,529.62V326.35H3294v-28H3175V155.24h-29.89V515.07C3145.06,530.35,3138.84,543.29,3127,552.74ZM3466.81,578h-73.26c-48.43,0-62.43-16.05-62.43-71.58V145.11h44.35V323c42.27-26.68,86.8-61.55,114.79-90l2.6-2.64L3528,266.6l-2.94,2.5c-49.86,42.33-114.37,80.79-149.6,100.59V507.84c0,11.39.66,19.79,3.84,23.76,2.6,3.23,7.5,4.43,18.09,4.43h67c19.69,0,23.76-16,27.24-107.38l.26-6.83,5.5,4.05c8.52,6.28,23,13.45,33.07,16.31l2.75.78-.13,2.86c-2.06,45.33-5.4,79.92-15,101.45C3508.6,568.5,3492.79,578,3466.81,578ZM3338.36,152.35v354c0,51.72,10.83,64.35,55.19,64.35h73.26c45.19,0,54.6-30.66,58.92-122.45a135.73,135.73,0,0,1-27.11-12.88c-3.14,80-6.3,107.86-34.22,107.86h-67c-11.11,0-19-1.2-23.73-7.14-4.54-5.66-5.43-14.66-5.43-28.29V365.45l1.85-1c58.1-32.51,110.24-67.32,147.34-98.33l-24.62-25.42c-29.74,29.59-76,65.35-119.06,91.91l-5.51,3.4V152.35Z"/><path class="cls-1" d="M3820.14,240.31c-44.83,49.65-113.76,91.11-178.84,113.28-5.3-9.16-14.94-21.69-22.65-28.44,60.74-16.87,124.84-52.06,166.78-93H3651V200.31h169.19V145.84h35.67v54.47h172.08v31.81H3887.62c43.38,39.53,108.45,73.27,171.12,88.69-8.2,7.23-18.32,20.73-23.14,29.89-66-20.25-134.49-60.74-179.79-108.94V356.48h-35.67Zm139.3,180.76c27,39.05,68.93,79.54,104.6,100.26-7.71,6.27-18.8,18.8-25.07,28-27-20.73-59.77-54.47-84.83-90.14V587.37H3920.4V461.56c-28,37.12-63.63,69.41-97.37,89.18-4.82-8.2-15-19.77-22.18-25.55C3842.79,504,3888.1,463,3914.61,421.07h-72.78V389.26h78.57V337.2h33.74v52.06h91.58v31.81ZM3802.3,503.5c-10.6-10.12-33.74-29.89-54-46.28V583h-34.22V464c-23.14,34.71-53,66.52-82.43,85.32-2.89-9.16-10.12-23.14-15.42-31.81,34.71-20.25,71.34-58.81,94-97.37h-76.64V388.3h80.5V337.2h34.22v51.1h77.61v31.81h-77.61V424c19.29,13,68,49.65,80.5,59.29Z"/><path class="cls-1" d="M3957.75,591h-41V472.12c-26.78,33.48-59.84,62.94-91.92,81.74l-3.12,1.82-1.83-3.11c-4.52-7.68-14.28-18.93-21.31-24.56l-4.4-3.51,5-2.54c40.36-20.41,82.39-58.13,108.71-97.27h-69.72V385.64h78.57V333.58h41v52.06h91.59v39.05h-82.9c27,37.21,66.25,74.24,99.42,93.52l4.52,2.63-4.06,3.3c-7.15,5.81-18.08,18-24.36,27.19l-2.16,3.16-3-2.33c-26.47-20.32-56-51-79-81.85ZM3924,583.75h26.51v-136l6.58,9.35c22.53,32.07,53.34,65.09,81.12,87.05a172.13,172.13,0,0,1,19.7-22.24c-34.76-21.41-75-60.47-101.46-98.75l-3.92-5.67h89.56V392.88h-91.58V340.82H3924v52.06h-78.57v24.58h75.74l-3.51,5.55C3892,463.59,3849.1,503.48,3807.22,526a124.37,124.37,0,0,1,17,19.88c33-20,66.85-51.32,93.31-86.44l6.5-8.64Zm-172.08,2.9h-41.46V475.59c-23.12,32.41-50.7,60-76.86,76.75l-4,2.54-1.42-4.5c-2.74-8.65-9.65-22.15-15.07-31l-1.92-3.15,3.19-1.86c31.93-18.63,66.49-53.76,89.4-90.62H3630V384.68h80.49v-51.1h41.46v51.1h77.61v39.05h-75.18c21.34,14.83,65.17,47.82,76.66,56.66l3.74,2.87-32.72,25-2.24-2.13c-9.25-8.84-28.7-25.59-47.87-41.29Zm-34.22-7.23h27V449.64l5.89,4.77c19.66,15.92,40.82,34,51.95,44.35l20.32-15.51c-16.38-12.47-59-44.44-76.57-56.29l-1.59-1.07v-9.4h77.6V391.91h-77.6V340.82h-27v51.09h-80.5v24.58h79.34l-3.2,5.45c-22.68,38.61-58.54,76.2-92.16,96.79a195.67,195.67,0,0,1,12.33,25c26.76-18.13,54.82-47.67,77.56-81.77l6.63-9.94ZM3859.42,360.1h-42.9V249.5c-43.24,45-107.56,84.86-174.05,107.51l-2.81,1-1.48-2.57c-4.76-8.22-14.06-20.66-21.91-27.53l-5.05-4.41,6.46-1.79c57.93-16.1,117.83-48.65,158.65-85.93h-129V196.69h169.19V142.22h42.9v54.47H4031.5v39.05H3897.2c42.67,36.28,104,67.17,162.4,81.56l6.71,1.65-5.18,4.57c-8.23,7.27-18,20.64-22.33,28.86l-1.4,2.65-2.86-.87c-65.54-20.1-130.31-58.45-175.12-103.46Zm-35.67-7.23h28.44V232.63l6.25,6.65c43.48,46.26,108.88,86.15,175.42,107.09a137.82,137.82,0,0,1,17.73-23.65c-61-16.17-124.24-49.51-166.41-87.93l-6.9-6.29h146V203.92H3852.19V149.45h-28.44v54.47H3654.56V228.5h139.75l-6.35,6.21C3747.7,274,3686,309,3625.67,326.9a147.42,147.42,0,0,1,17.22,22.32c67.7-23.58,132.78-65.06,174.56-111.33l6.3-7Z"/><path class="cls-1" d="M4395.67,161.74c-4.82,6.27-9.64,13-14,19.29,43.87,44.82,122,97.85,199.56,124.36-8.2,7.23-19.28,21.69-25.06,31.81-74.72-30.37-149.91-85.8-195.23-132.07-29.88,32.77-67,63.62-108.45,90.14H4475.2v33.25h-229v-29.4a626.25,626.25,0,0,1-79.53,42.9c-5.3-8.68-17.84-23.62-26-30.37,93.51-40,177.87-100.26,220.77-164.85ZM4163.34,387.33h395.74V422H4348.91c-29.88,39.52-63.62,78.57-98.33,109.42l218.84-16.39a711.9,711.9,0,0,0-55.91-57.85l30.36-16.38c42.9,38.56,88.21,89.65,109.42,125.8l-31.81,19.77A405.65,405.65,0,0,0,4495,546.88c-254.51,20.73-281.5,22.66-299.34,29.4-2.41-7.71-8.19-26.51-12.05-37.11,10.12-1.93,21.21-11.09,35.67-25.07,13.5-11.08,49.65-49.16,81-92.06H4163.34Z"/><path class="cls-1" d="M4520.23,591.44l-1.87-3.21a404.47,404.47,0,0,0-25.08-37.58L4460,553.36c-218.47,17.78-246.54,20.07-263,26.31l-3.59,1.35-2-6.49c-2.69-8.64-7.7-24.73-11.12-34.13l-1.45-4,4.17-.79c9.19-1.75,20.17-10.91,33.84-24.12l.21-.19c13.59-11.16,46.82-46.48,76.11-85.66H4159.72V383.71h403v41.94h-212c-30.68,40.45-60.88,74.51-89.91,101.41L4462,512a706.33,706.33,0,0,0-50.91-52.11l-3.73-3.44,37.07-20,1.89,1.71c45.32,40.73,89.57,91.63,110.12,126.66l1.79,3.05Zm-23.58-48.33,1.2,1.58a416.6,416.6,0,0,1,24.86,36.69l25.65-15.93c-20.62-33.83-62.16-81.4-105-120.22L4419.67,458a713.74,713.74,0,0,1,52.5,54.7l4.65,5.43-236.64,17.72,8-7.11c31.39-27.9,64.31-64.54,97.85-108.89l1.09-1.44h208.34V391H4167v27.47h140.4l-4.2,5.75c-30.53,41.8-66.87,80.58-81.49,92.63-13.14,12.7-23.59,21.47-33.37,24.84,3.23,9.32,7.27,22.24,9.68,30,17.84-5.67,52.17-8.46,261.39-25.49ZM4165.29,346.62l-1.66-2.71c-4.94-8.08-17-22.71-25.25-29.46l-4.59-3.78,5.47-2.34C4236,267,4317.91,205.82,4358.44,144.8l1.67-2.53,41.25,18-2.82,3.67c-3.73,4.84-7.72,10.31-12.16,16.67,41.31,41.41,117.16,94.4,196,121.34l5.89,2-4.67,4.12c-7.41,6.54-18.32,20.4-24.31,30.89l-1.57,2.75-2.94-1.19a534,534,0,0,1-76-38.75v30.34H4242.63V305.66a631.19,631.19,0,0,1-74.44,39.66Zm-18-33.88a177,177,0,0,1,20.78,24.7,627.76,627.76,0,0,0,76.25-41.37l5.55-3.53v.13l.7-.45c41-26.2,78.22-57.16,107.73-89.53l2.58-2.83,2.68,2.74c25.46,26,65.63,59.68,112.58,89h2.69v1.67a534.85,534.85,0,0,0,75.85,39.35,165.25,165.25,0,0,1,19.84-25.81c-79.35-28.36-154.94-82-195.4-123.31l-2.09-2.13,1.7-2.45c4.09-5.91,7.81-11.1,11.29-15.75l-27.24-11.9c-21.11,31-51.56,61.26-90.58,90C4235.66,268.31,4192.57,292.92,4147.28,312.74Zm102.58,12.17h221.73v-26H4249.86Zm14.79-33.26H4462.7c-41.79-27.18-77.61-57.2-101.64-81.28C4334.05,239.48,4301,267.37,4264.65,291.65Z"/><path class="cls-1" d="M5052.67,209c-28.92,43.38-73.75,76.64-126.78,102.67,50.13,15.43,109.91,24.1,174,28-7.23,8.2-15.42,22.17-19.76,32.3-73.75-6.27-140.75-19.28-196.66-42.42-64.11,25.06-136.42,39.52-206.31,48.2-2.41-9.16-8.68-23.14-14.46-31.33,61.22-5.78,124.36-17.35,181.24-35.67-28-15.42-52.06-34.22-71.82-56.88-19.28,15.91-41.45,30.37-66,44.35-4.82-8.2-14.46-20.73-22.17-26.51,67.48-34.23,115.2-83.88,139.79-125.81l37.59,7.71A468.74,468.74,0,0,1,4830.45,196h194.26L5031,194Zm-257.4,24.59c21.21,26.51,51.57,47.23,88.69,63.14,45.31-18.32,84.83-41.45,113.27-69.89H4802.5Zm261.25,180.27s-.48,11.09-1.93,15.91c-10.12,87.25-21.2,123.4-37.59,138.34-10.61,9.64-21.21,12-39.05,13-14,.49-42.9.49-71.34-1.44-.48-9.64-4.82-22.66-11.08-31.82,30.36,2.9,60.73,3.38,72.78,3.38,9.64,0,15.43-.48,20.73-4.34,11.09-9.16,20.73-38.56,28.92-101.71H4871.91c-30.37,77.61-89.66,118.1-184.13,140.75-3.86-8.19-13-23.13-19.77-30.36,84.84-16.39,138.34-48.69,165.82-110.39H4701.27V413.84h143.64a321.23,321.23,0,0,0,9.16-47.72l37.12,2.89c-2.41,15.91-5.79,31.34-9.16,44.83Z"/><path class="cls-1" d="M4685.76,590.13l-1.26-2.67C4681,579.94,4672,565.1,4665.37,558l-4.46-4.77,6.42-1.24c84.42-16.31,134.32-48.25,160.84-103.22H4697.66V410.23h144.47a316.11,316.11,0,0,0,8.35-44.51l.38-3.48,44.49,3.47-.58,3.85c-1.92,12.6-4.64,26.26-8.13,40.67H5060.3l-.16,3.77c-.05,1.16-.53,11.25-2,16.46-9.82,84.51-20.68,123.86-38.72,140.3-11.52,10.48-23.4,13-41.28,14-12.45.43-41.49.6-71.78-1.45l-3.21-.22-.16-3.21c-.46-9.32-4.77-21.63-10.46-30l-4.36-6.38,7.69.73c33.56,3.2,66.23,3.36,72.44,3.36,9.52,0,14.22-.5,18.51-3.58,10.81-9,19.65-40.22,27-95.23H4874.36c-15.22,37.84-37.59,67.39-68.32,90.27-29.63,22.06-68,38.54-117.42,50.38Zm-11.05-32.22a172.91,172.91,0,0,1,15,23.82c96.77-23.74,150.33-65.09,178.81-137.87l.9-2.3h152.64l-.53,4.08c-7.84,60.43-17.44,93.49-30.21,104l-.17.14c-6.42,4.66-13.52,5-22.86,5-5.83,0-34.78-.15-66.06-2.76a73.77,73.77,0,0,1,7.7,24.17c28.87,1.82,56.06,1.65,67.88,1.24,16.87-.91,26.7-3,36.73-12.08,16.4-14.95,27-54.38,36.44-136.08l0-.31.09-.31a67,67,0,0,0,1.55-11.25H4877.4l1.12-4.49c3.59-14.38,6.44-28,8.49-40.65L4857.26,370a328.91,328.91,0,0,1-8.85,44.77l-.72,2.69h-142.8v24.1H4839.4l-2.27,5.09C4810.81,505.76,4760.58,540.23,4674.71,557.91Zm-.23-176.24-.81-3.06c-2.41-9.18-8.65-22.71-13.91-30.17l-3.6-5.09,6.21-.59c61.8-5.84,121.27-17.23,172.59-33-24.56-14.42-45.79-31.52-63.24-50.92-17.46,14.09-38.39,28-63.84,42.49l-3.1,1.76L4703,300c-4.94-8.38-14.22-20.19-21.23-25.45l-4.65-3.49,5.19-2.63c58.25-29.54,109.95-76.05,138.3-124.41l1.31-2.24,45.35,9.31-2.92,4.45c-9.34,14.26-17.82,26.14-26.29,36.82h186.13l7.41-2.28,26.07,18-2,3c-25.66,38.5-66,72-120,99.79,45.08,12.89,100.34,21.37,164.44,25.22l7.4.45-4.9,5.55c-7.31,8.29-15.17,22-19.16,31.33l-1,2.4-2.6-.22c-79.43-6.75-143.7-20.53-196.4-42.13-57,22.11-124.32,37.78-205.82,47.9Zm-5.55-32.28a127.17,127.17,0,0,1,10.86,24.33c80.17-10.14,146.39-25.71,202.37-47.6l1.36-.53,1.34.56c51.69,21.39,114.86,35.11,193,41.93a155.63,155.63,0,0,1,14.86-25.3c-65.88-4.35-122.35-13.65-167.91-27.67l-8.72-2.68,8.19-4c55.53-27.26,97-60.38,123.36-98.49L5030.37,198l-5.12,1.58H4822.77l4.9-5.93A445,445,0,0,0,4855.34,156l-29.84-6.12c-14.85,24.63-55.22,80.59-135.14,122.49a121,121,0,0,1,17,20.89c25-14.4,45.5-28.24,62.5-42.26l2.71-2.24,2.31,2.65c19,21.76,42.82,40.63,70.85,56.09l7.33,4.05-8,2.56C4793.1,330.86,4732.32,343,4668.93,349.39Zm215-48.76-1.39-.59c-39.1-16.76-69.41-38.37-90.09-64.21l-2.09-2.62,10.72-10H5006l-6.18,6.18c-27.19,27.18-65.7,51-114.47,70.68Zm-83.71-66.73c19.62,23.47,47.78,43.27,83.79,58.89,43.47-17.71,78.48-38.66,104.24-62.36H4803.92Z"/><path class="cls-2" d="M1153,147.3h149.74c-51.39,36.76-47.77,97.49-14.55,145.92,10.17,14.82,22.46,29.91,35,44.91,41.34,49.44,86.13,82.74,120.68,130.11,44.4,60.91,62.69,128.49,33.29,203.86-15.2,38.95-42.3,71.42-78.8,88.3-27.6,12.77-59.14,17.49-92,17.49H1133.53V644.6h167.83a53.44,53.44,0,0,0,53-53.42c0-25.4-20.2-43.24-35.48-60.64-38.5-43.83-79.16-88.75-100.81-111.23-77-79.93-98.14-171.09-65.08-272Zm851,440v-440h98.77v65.31c34.38-41,68.92-57.17,121.48-55.58,28.47,0,73.16,18.87,95.77,45.83,21.56,27.5,37.19,50.39,37.19,100.86V587.31H2249.32V341c0-14.4,0-30.06-2.29-44.63-1.83-11.52-8.24-24.07-17.82-34.33-27.48-29.48-78.27-28.63-103.49,4-13.49,17.28-14.66,34.34-14.66,77.37V587.31ZM1621.54,382.62,1816.27,265.1a81.14,81.14,0,0,0-30.62-21.29c-12-4.7-25.43-7.05-40.18-7.05q-53.54,0-89.08,36.08T1620.7,364c0,5.26.14,9,.28,11.61s.28,5,.56,7.06Zm308.68,149.46q-44,28.41-89.21,42.45a310,310,0,0,1-93.86,14.23c-31.89,0-61.54-5.38-89.22-16a227.55,227.55,0,0,1-74.32-47.15,218.13,218.13,0,0,1-50.72-71.89A212.79,212.79,0,0,1,1515.33,368q0-46,17.14-85.85,17.07-39.63,51.14-71.62c22.06-21.3,46.37-37.2,73.34-47.57s56.9-15.62,90.2-15.62q67.44,0,121,32.36t88.09,94.43L1657,456.87a132.83,132.83,0,0,0,43.27,26.68c15.87,5.94,33.3,8.85,52.27,8.85s39.62-3.88,61.26-11.76c21.77-7.73,46.08-20.18,73.34-37.19l43.13,88.63Zm-1699.73-119h157L309,244.67l-78.5,168.41Zm196.64,85H190.85l-41.58,89.2H0l205.11-440H412.87L618,587.31H468.72Z"/><path class="cls-3" d="M769,398.64a100.53,100.53,0,1,0,94.86-133.79,99.85,99.85,0,0,0-49.7,13.2V149.14a224.83,224.83,0,0,1,49.7-5.68c122.23,0,221.93,99.69,221.93,221.93S986,587.31,863.81,587.31c-101.12,0-186.8-68.23-213.39-161-8.7-30.39-8.54-59.11-8.54-90.43V0H763.35V338.22c0,20.73-1.44,40.46,5.6,60.42Z"/></g></g></svg>