<svg xmlns="http://www.w3.org/2000/svg" viewBox="0 0 5052.61 769.53"><defs><style>.cls-1,.cls-2{fill:#fff;}.cls-2,.cls-3{fill-rule:evenodd;}.cls-3{fill:#ef8200;}</style></defs><title>资源 2</title><g id="图层_2" data-name="图层 2"><g id="图层_1-2" data-name="图层 1"><path class="cls-1" d="M2905,314.5c-23.84,71.53-59.6,125.89-108.24,166.42,48.64,31.95,109.67,53.41,184.06,64.85-7.63,7.15-16.69,22.41-21,32-78.68-13.35-142.1-37.67-192.65-74.39-52.92,35.76-117.3,59.61-195,76.77-3.34-8.58-12.88-24.79-19.55-33.38,74.86-13.35,136.37-34.33,186-65.8-46.25-42-80.11-96.32-103.47-163.56l31.47-9.06c21,62.47,53.88,113,101.57,151.64,46.25-37.67,79.63-88.22,100.61-155Zm-234.6-83.92H2561.7V196.25h108.72v-51h34.81v51h123v-51h34.81v51h111.1v34.33h-111.1v61h-34.81v-61h-123v61h-34.81Z"/><path class="cls-1" d="M2570,584.26l-1.11-2.86c-3.2-8.22-12.45-24-19-32.48l-3.64-4.68,5.84-1c74.43-13.27,133.61-33.84,180.72-62.83-44.53-41.52-77.59-94.52-101-161.83l-1.24-3.57,38.39-11.05,1.09,3.24c21,62.42,53.1,110.92,98.17,148.15,45.19-37.56,77-87.12,97.21-151.42l1-3.25L2909.62,312l-1.2,3.62c-23.29,69.87-57.88,123.87-105.65,164.91,47.71,30.36,106.2,50.55,178.61,61.69l7.27,1.12-5.36,5c-6.83,6.4-15.62,20.69-20.17,30.81l-1.13,2.52-2.73-.46c-78.73-13.36-141.61-37.43-192.12-73.56-50.55,33.68-112.34,57.83-194.18,75.91Zm-11.07-35A194.72,194.72,0,0,1,2574.32,576c80.61-18.05,141.32-42.1,190.89-75.59l2.08-1.41,2,1.48c49.37,35.86,111,59.85,188.45,73.29a138.85,138.85,0,0,1,15.93-25.47c-72.45-11.83-131-32.91-178.89-64.35l-4-2.65,3.71-3.09c47.8-39.83,82.47-92.59,105.92-161.18l-29.25-7.7c-21,65.15-54,115.36-100.73,153.42l-2.26,1.84-2.25-1.83c-46.56-37.71-79.82-86.81-101.61-150l-24.55,7.06c23.53,66.19,56.67,118.08,101.25,158.52l3.48,3.15-4,2.52C2693.17,514,2633.7,535.37,2558.89,549.22Zm307.75-254h-42v-61H2708.8v61h-42v-61H2558.12V192.67h108.72v-51h42v51h115.87v-51h42v51h111.1v41.49h-111.1ZM2831.83,288h27.65V227h111.11V199.82H2859.48v-51h-27.65v51H2701.65v-51H2674v51H2565.27V227H2674v61h27.66V227h130.18Z"/><path class="cls-1" d="M3427.16,533.85c23.84,0,27.18-21.94,30.52-109.67,9.06,6.67,23.84,13.82,33.85,16.69-4.29,94.41-13.82,127.31-62,127.31h-72.48c-45.78,0-58.18-14.3-58.18-67.23V147.13h36.72V326c44.82-27.66,91.08-63.9,119.68-93l29.57,30.52c-41,34.81-97.28,71-149.25,100.14V502.38c0,26.7,3.81,31.47,25.27,31.47Zm-166.42-51c-.47,11.44.48,27.18,2.39,35.76-129.23,42-146.39,49.59-157.36,58.17-2.86-9.06-11.44-24.31-17.64-30.51,7.63-5.25,19.55-16.22,19.55-36.72V150h36.71V291.61h117.79v34.81H3144.39V519.07Z"/><path class="cls-1" d="M3103.91,582.76l-1.55-4.92c-2.81-8.91-11.27-23.57-16.76-29.06l-3-3,3.54-2.44c11.94-8.21,18-19.57,18-33.77V146.41H3148V288h117.78v42H3148V514.2l116.56-36.3-.21,5.08c-.48,11.56.53,26.86,2.3,34.83l.71,3.18-3.1,1c-127.93,41.55-145.85,49.45-156.25,57.59Zm-10.51-36c5.23,6.47,10.87,16.55,14.09,24.33,12.28-8.1,37.5-17.9,151.53-55a178.07,178.07,0,0,1-2-28.43l-116.23,36.2V322.85H3258.6V295.19H3140.82V153.57h-29.56v356C3111.26,524.65,3105.1,537.45,3093.4,546.79Zm336.15,25h-72.48c-47.91,0-61.76-15.88-61.76-70.81V143.55h43.88v176c41.81-26.4,85.86-60.89,113.55-89.05l2.57-2.61,34.78,35.9-2.92,2.47c-49.32,41.87-113.14,79.92-148,99.5V502.38c0,11.27.64,19.58,3.8,23.51,2.56,3.19,7.41,4.38,17.89,4.38h66.28c19.48,0,23.51-15.88,26.94-106.23l.26-6.75,5.44,4c8.43,6.21,22.8,13.29,32.72,16.12l2.72.78-.13,2.83c-2,44.84-5.34,79.06-14.85,100.36C3470.88,562.39,3455.24,571.76,3429.55,571.76Zm-127.08-421V501c0,51.16,10.71,63.65,54.6,63.65h72.48c44.7,0,54-30.32,58.28-121.13A134.18,134.18,0,0,1,3461,430.73c-3.1,79.12-6.24,106.7-33.85,106.7h-66.28c-11,0-18.75-1.18-23.47-7.06-4.5-5.61-5.38-14.51-5.38-28V361.52l1.83-1c57.47-32.16,109-66.59,145.76-97.27l-24.36-25.15c-29.41,29.27-75.19,64.65-117.77,90.92l-5.46,3.37V150.71Z"/><path class="cls-1" d="M3779.07,237.73c-44.35,49.12-112.54,90.12-176.91,112.06-5.25-9.06-14.78-21.46-22.41-28.13,60.08-16.69,123.5-51.5,165-92h-133V198.15h167.37V144.27h35.29v53.88h170.23v31.47H3845.83c42.91,39.11,107.29,72.48,169.28,87.74-8.11,7.16-18.12,20.51-22.89,29.57-65.33-20-133-60.08-177.86-107.77V352.65h-35.29Zm137.81,178.82c26.7,38.62,68.18,78.67,103.47,99.18-7.63,6.2-18.6,18.6-24.8,27.66-26.7-20.51-59.12-53.89-83.92-89.17V581.06h-33.38V456.6c-27.65,36.72-62.94,68.67-96.32,88.22-4.77-8.11-14.78-19.55-21.93-25.28,41.48-21,86.3-61.51,112.53-103h-72V385.07h77.72V333.58h33.38v51.49h90.6v31.48Zm-155.45,81.54c-10.49-10-33.38-29.57-53.41-45.78V576.76h-33.86V459c-22.89,34.33-52.45,65.8-81.54,84.4-2.86-9.06-10-22.89-15.25-31.48,34.33-20,70.57-58.17,93-96.32h-75.82V384.12h79.63V333.58H3708v50.54h76.77v31.47H3708v3.82c19.07,12.87,67.23,49.11,79.63,58.65Z"/><path class="cls-1" d="M3915.21,584.63h-40.54V467c-26.48,33.13-59.19,62.27-90.93,80.86l-3.08,1.81-1.81-3.08c-4.47-7.6-14.13-18.73-21.09-24.29l-4.34-3.48,5-2.51c39.93-20.19,81.5-57.51,107.54-96.23h-69V381.5h77.72V330h40.54v51.5h90.6v38.62h-82c26.71,36.81,65.53,73.45,98.35,92.52l4.48,2.6-4,3.27c-7.07,5.74-17.89,17.81-24.1,26.9l-2.14,3.12-3-2.31c-26.19-20.1-55.43-50.47-78.17-81Zm-33.38-7.15h26.22V442.9l6.51,9.26c22.29,31.72,52.77,64.39,80.25,86.11a170.52,170.52,0,0,1,19.49-22c-34.39-21.18-74.19-59.82-100.37-97.69l-3.88-5.61h88.6V388.65h-90.6v-51.5h-26.22v51.5H3804.1V413H3879l-3.48,5.49c-25.38,40.14-67.83,79.61-109.26,101.84a123.06,123.06,0,0,1,16.8,19.66c32.65-19.78,66.13-50.77,92.3-85.51l6.44-8.55Zm-170.23,2.86h-41V470.47c-22.88,32.07-50.17,59.39-76,75.93l-3.93,2.51-1.41-4.45c-2.7-8.56-9.54-21.91-14.9-30.68l-1.9-3.12,3.15-1.84c31.6-18.42,65.78-53.18,88.45-89.65H3591V380.54h79.64V330h41v50.54h76.77v38.63H3714c21.12,14.68,64.47,47.31,75.83,56.05l3.7,2.85-32.36,24.72-2.21-2.12c-9.16-8.73-28.4-25.31-47.36-40.83Zm-33.86-7.15h26.7V444.81l5.83,4.72c19.45,15.75,40.38,33.62,51.4,43.87l20.09-15.34c-16.2-12.34-58.38-44-75.74-55.69l-1.58-1.06V412h76.77V387.7h-76.77V337.15h-26.7V387.7h-79.63V412h78.49l-3.17,5.4c-22.43,38.19-57.91,75.37-91.16,95.74a194.69,194.69,0,0,1,12.19,24.74c26.48-17.93,54.23-47.15,76.73-80.89l6.55-9.83Zm140.19-217h-42.44V246.82c-42.77,44.54-106.41,83.94-172.17,106.36l-2.78.94-1.47-2.54c-4.71-8.13-13.91-20.44-21.68-27.23l-5-4.37,6.39-1.77c57.31-15.92,116.56-48.13,156.95-85H3608.12V194.58h167.37V140.69h42.44v53.89h170.23V233.2H3855.31c42.21,35.9,102.83,66.46,160.65,80.69l6.64,1.63-5.13,4.53c-8.14,7.18-17.81,20.41-22.09,28.54l-1.38,2.63-2.83-.87c-64.84-19.88-128.91-57.82-173.24-102.35Zm-35.28-7.16h28.13V230.13l6.18,6.58c43,45.76,107.71,85.22,173.54,105.94a136.31,136.31,0,0,1,17.54-23.4c-60.34-16-122.91-49-164.62-87l-6.83-6.22H3981V201.73H3810.78V147.85h-28.13v53.88H3615.28v24.32h138.24l-6.28,6.13c-39.83,38.92-100.87,73.51-160.55,91.2a146.59,146.59,0,0,1,17,22.08c67-23.32,131.35-64.35,172.68-110.13l6.24-6.9Z"/><path class="cls-1" d="M4348.42,160c-4.77,6.19-9.54,12.87-13.83,19.07,43.39,44.35,120.64,96.8,197.41,123-8.11,7.16-19.07,21.46-24.79,31.48-73.91-30.05-148.3-84.88-193.13-130.66-29.56,32.43-66.28,62.94-107.28,89.17h220.29V325H4200.6V295.91a621.29,621.29,0,0,1-78.68,42.43c-5.25-8.58-17.65-23.36-25.75-30,92.51-39.57,175.95-99.18,218.39-163.08ZM4118.58,383.17h391.49V417.5H4302.16c-29.56,39.1-62.94,77.72-97.27,108.24l216.48-16.21a701.38,701.38,0,0,0-55.31-57.22l30-16.21c42.44,38.14,87.26,88.69,108.24,124.45l-31.47,19.55a399.79,399.79,0,0,0-26.22-39.1c-251.78,20.51-278.48,22.41-296.12,29.09-2.39-7.63-8.11-26.23-11.92-36.72,10-1.9,21-11,35.28-24.79,13.35-11,49.12-48.64,80.11-91.08H4118.58Z"/><path class="cls-1" d="M4471.64,585.08l-1.86-3.17a398.34,398.34,0,0,0-24.8-37.18l-33,2.68c-216.12,17.59-243.89,19.85-260.21,26l-3.55,1.34-2-6.42c-2.66-8.56-7.62-24.47-11-33.76l-1.43-4,4.13-.78c9.09-1.73,20-10.79,33.47-23.86l.21-.19c13.44-11,46.31-46,75.29-84.73H4115V379.59h398.64v41.49h-209.7c-30.35,40-60.23,73.7-88.94,100.32l199-14.91a701.05,701.05,0,0,0-50.36-51.55l-3.69-3.4,36.67-19.79,1.87,1.69c44.83,40.29,88.61,90.65,108.94,125.3l1.77,3Zm-23.33-47.8,1.19,1.56a411.92,411.92,0,0,1,24.59,36.29l25.38-15.76c-20.4-33.46-61.49-80.53-103.89-118.93l-23.42,12.65a702.14,702.14,0,0,1,51.93,54.11l4.6,5.37L4194.6,530.1l7.91-7c31.06-27.6,63.62-63.85,96.8-107.73l1.07-1.42h206.11V386.75H4122.16v27.17h138.89l-4.16,5.69c-30.2,41.35-66.15,79.71-80.61,91.64-13,12.55-23.34,21.24-33,24.57,3.2,9.22,7.18,22,9.57,29.67,17.65-5.6,51.61-8.37,258.58-25.21ZM4120.51,342.9l-1.64-2.69c-4.89-8-16.86-22.46-25-29.14l-4.54-3.74,5.41-2.32c95.68-40.93,176.73-101.4,216.82-161.77l1.66-2.5,40.8,17.82-2.79,3.63c-3.68,4.79-7.63,10.2-12,16.49,40.87,41,115.89,93.38,193.93,120l5.83,2-4.62,4.08c-7.34,6.47-18.13,20.18-24.06,30.56l-1.55,2.72-2.9-1.18a529.42,529.42,0,0,1-75.19-38.33v30H4197v-26.2a624.39,624.39,0,0,1-73.64,39.24Zm-17.81-33.52a174.66,174.66,0,0,1,20.55,24.44,620.65,620.65,0,0,0,75.43-40.94l5.5-3.48v.12l.69-.44c40.52-25.92,77.37-56.54,106.57-88.57l2.55-2.8,2.65,2.71c25.19,25.72,64.92,59,111.37,88.09h2.66v1.66a530.2,530.2,0,0,0,75,38.92,163.93,163.93,0,0,1,19.62-25.53c-78.49-28.05-153.27-81.07-193.3-122l-2.06-2.11,1.68-2.43c4.05-5.84,7.73-11,11.17-15.57l-26.95-11.77c-20.88,30.64-51,60.59-89.61,89.06C4190.12,265.42,4147.5,289.78,4102.7,309.38Zm101.48,12h219.34V295.67H4204.18Zm14.62-32.9h195.92c-41.34-26.88-76.77-56.58-100.54-80.4C4287.46,236.9,4254.72,264.5,4218.8,288.51Z"/><path class="cls-1" d="M4998.35,206.74c-28.61,42.91-73,75.81-125.41,101.56,49.59,15.26,108.72,23.85,172.14,27.66-7.15,8.11-15.26,21.93-19.55,32-73-6.2-139.24-19.08-194.55-42-63.42,24.79-134.95,39.1-204.09,47.68-2.38-9.06-8.58-22.89-14.3-31,60.56-5.73,123-17.17,179.29-35.29-27.66-15.26-51.5-33.86-71.05-56.27-19.08,15.74-41,30-65.33,43.87-4.77-8.1-14.3-20.5-21.93-26.22,66.76-33.86,114-83,138.28-124.46l37.2,7.63a466.41,466.41,0,0,1-30.52,42h192.16l6.2-1.91Zm-254.63,24.32c21,26.22,51,46.73,87.74,62.46,44.82-18.12,83.92-41,112.05-69.14H4750.87Zm258.45,178.33s-.48,11-1.91,15.74c-10,86.31-21,122.07-37.2,136.85-10.49,9.54-21,11.92-38.62,12.88-13.83.47-42.44.47-70.57-1.43-.48-9.54-4.77-22.41-11-31.47,30,2.86,60.08,3.33,72,3.33,9.54,0,15.26-.47,20.51-4.29,11-9.06,20.5-38.15,28.61-100.61H4819.54c-30.05,76.77-88.7,116.82-182.16,139.24-3.81-8.11-12.87-22.89-19.55-30,83.92-16.21,136.86-48.16,164-109.19H4650.73v-31h142.1a317.55,317.55,0,0,0,9.06-47.2l36.72,2.86c-2.39,15.73-5.72,31-9.06,44.34Z"/><path class="cls-1" d="M4635.38,583.78l-1.24-2.63c-3.5-7.45-12.39-22.13-18.92-29.12l-4.42-4.73,6.35-1.23c83.52-16.13,132.88-47.72,159.11-102.1h-129.1V405.82h142.91a312,312,0,0,0,8.27-44l.38-3.44,44,3.43-.57,3.8c-1.89,12.47-4.59,26-8,40.24H5005.9l-.16,3.73c-.05,1.14-.52,11.13-2,16.29-9.72,83.6-20.46,122.52-38.31,138.79-11.4,10.36-23.14,12.84-40.84,13.8-12.31.43-41,.6-71-1.43l-3.17-.22-.16-3.17c-.46-9.22-4.71-21.4-10.34-29.63l-4.32-6.31,7.61.72c33.19,3.17,65.52,3.33,71.66,3.33,9.42,0,14.07-.5,18.31-3.55,10.69-8.95,19.44-39.79,26.73-94.2H4822c-15.07,37.43-37.2,66.66-67.59,89.29-29.32,21.83-67.31,38.13-116.16,49.85Zm-10.93-31.87a171.22,171.22,0,0,1,14.87,23.56C4735.05,552,4788,511.09,4816.2,439.08l.89-2.27h151l-.52,4c-7.76,59.78-17.26,92.48-29.88,102.91l-.18.14c-6.35,4.61-13.37,5-22.61,5-5.76,0-34.4-.14-65.35-2.73a73,73,0,0,1,7.62,23.92c28.55,1.8,55.46,1.62,67.15,1.22,16.69-.9,26.41-2.92,36.34-11.94,16.22-14.8,26.67-53.8,36-134.62l0-.32.09-.3a65.74,65.74,0,0,0,1.53-11.13H4825l1.11-4.44c3.55-14.22,6.37-27.73,8.4-40.22L4805.05,366a326.61,326.61,0,0,1-8.76,44.3l-.71,2.65H4654.31v23.84h133.07l-2.25,5C4759.09,500.32,4709.41,534.42,4624.45,551.91Zm-.22-174.34-.8-3c-2.39-9.08-8.56-22.47-13.77-29.84l-3.56-5.05,6.15-.58c61.14-5.77,120-17,170.73-32.67-24.29-14.27-45.29-31.18-62.55-50.37-17.28,13.94-38,27.71-63.16,42l-3.06,1.75-1.79-3c-4.88-8.3-14.07-20-21-25.18l-4.6-3.45,5.13-2.61c57.63-29.22,108.77-75.23,136.81-123.07l1.3-2.21,44.87,9.2-2.89,4.41c-9.24,14.11-17.63,25.86-26,36.42h184.13l7.34-2.25,25.78,17.76-1.95,2.93c-25.39,38.09-65.3,71.27-118.71,98.72,44.6,12.75,99.27,21.13,162.68,24.95l7.31.44-4.85,5.5c-7.23,8.19-15,21.79-18.94,31l-1,2.37-2.57-.22c-78.57-6.67-142.15-20.31-194.29-41.67-56.35,21.87-123,37.37-203.61,47.38Zm-5.49-31.94a126,126,0,0,1,10.74,24.07c79.31-10,144.82-25.44,200.2-47.09l1.34-.52,1.33.55c51.14,21.16,113.62,34.74,190.95,41.49a152.53,152.53,0,0,1,14.69-25c-65.17-4.3-121-13.51-166.1-27.38l-8.63-2.65,8.1-4c54.93-27,96-59.73,122-97.42l-17.1-11.79-5.06,1.56H4770.92l4.85-5.86a437.66,437.66,0,0,0,27.37-37.24l-29.51-6.05C4758.94,172.65,4719,228,4639.94,269.47a119.36,119.36,0,0,1,16.79,20.66c24.76-14.24,45-27.94,61.82-41.81l2.69-2.21,2.28,2.62c18.78,21.52,42.36,40.19,70.09,55.49l7.25,4-7.88,2.54C4741.58,327.31,4681.45,339.34,4618.74,345.63Zm212.68-48.23-1.37-.59c-38.68-16.58-68.67-37.95-89.13-63.52l-2.07-2.59,10.61-9.9h202.69l-6.11,6.11c-26.89,26.9-65,50.42-113.24,69.93Zm-82.81-66c19.41,23.22,47.27,42.81,82.89,58.26,43-17.52,77.63-38.24,103.11-61.68H4752.28Z"/><path class="cls-2" d="M1140.58,145.72h148.14c-50.84,36.36-47.26,96.44-14.4,144.35,10.07,14.65,22.22,29.59,34.63,44.43,40.89,48.9,85.2,81.84,119.38,128.71,43.92,60.25,62,127.1,32.93,201.66-15,38.54-41.85,70.65-78,87.36-27.31,12.62-58.5,17.3-91,17.3H1121.34V637.67h166a52.86,52.86,0,0,0,52.42-52.85c0-25.12-20-42.77-35.1-60-38.09-43.36-78.31-87.8-99.73-110-76.16-79.06-97.08-169.25-64.38-269.07ZM1982.46,581V145.72h97.7v64.6c34-40.52,68.18-56.55,120.18-55,28.16,0,72.37,18.67,94.74,45.34,21.33,27.2,36.79,49.85,36.79,99.77V581H2225.14V337.3c0-14.25,0-29.74-2.27-44.15-1.8-11.4-8.15-23.81-17.62-34-27.18-29.17-77.44-28.33-102.38,4-13.34,17.1-14.5,34-14.5,76.54V581ZM1604.11,378.5l192.64-116.25a80.38,80.38,0,0,0-30.3-21.07c-11.81-4.64-25.15-7-39.75-7q-53,0-88.12,35.7T1603.28,360c0,5.2.14,8.89.27,11.49s.28,4.92.56,7Zm305.36,147.86q-43.58,28.11-88.26,42a306.48,306.48,0,0,1-92.84,14.08c-31.55,0-60.88-5.32-88.26-15.85a225.3,225.3,0,0,1-73.53-46.65,215.75,215.75,0,0,1-50.17-71.12A210.55,210.55,0,0,1,1499,364q0-45.54,17-84.94,16.89-39.19,50.59-70.84c21.83-21.07,45.87-36.8,72.56-47.06q39.81-15.37,89.23-15.45,66.72,0,119.67,32t87.14,93.41L1639.14,452a130.93,130.93,0,0,0,42.81,26.4c15.7,5.88,32.93,8.76,51.7,8.76s39.2-3.84,60.6-11.63,45.59-20,72.55-36.79l42.67,87.67ZM228,408.64H383.33L305.67,242,228,408.64Zm194.53,84.12H188.8L147.66,581H0L202.9,145.72H408.44L611.34,581H463.68Z"/><path class="cls-3" d="M760.68,394.35a99.52,99.52,0,1,0,44.67-119.29V147.54a222.5,222.5,0,0,1,49.17-5.62c120.92,0,219.55,98.62,219.55,219.54S975.44,581,854.52,581c-100,0-184.79-67.5-211.1-159.28-8.6-30.07-8.44-58.48-8.44-89.46V0H755.14V334.58c0,20.51-1.42,40,5.54,59.77Z"/></g></g></svg>