<?xml version="1.0" standalone="no"?><svg data-noselect="" 
  viewBox="113.87921142578 73.95764343479186 567 425.58009536525816" 
  width="567" 
  height="425.58009536525816" 
  ref="svg_canvas" 
  preserveAspectRatio="none" 
  version="1.1" xmlns="http://www.w3.org/2000/svg" 
  style="background: #FFFFFF;">
    <defs></defs>
    <g id="shape_edDVjnWpSL" class="icon"  ref="shape_edDVjnWpSL" key="shape_edDVjnWpSL" transform="translate(314.04282379150993,153.95764343479186) rotate(0,83.336383773895,83.336383773895) scale(1,1)" style="cursor:move;display:inline;opacity:1;" filter="">
            <g style="display:inline"><rect fill="rgba(0,0,0,0)" width="186.67276754779" height="186.1003151508663" x="-10" y="-10"></rect><svg version="1.1" id="图层_1" xmlns="http://www.w3.org/2000/svg" xmlns:xlink="http://www.w3.org/1999/xlink" x="0px" y="0px" viewBox="0 0.0000019073486328125 298.72601318359375 297.70001220703125" enable-background="new 0 0 298.8 297.6" xml:space="preserve" width="166.67276754779" height="166.1003151508663" class="style-removed" preserveAspectRatio="none" data-parent="shape_edDVjnWpSL">
<g>
	<path fill="#FEC000" d="M298.3,136.3c-1.8-22.9-8.8-44.7-20.3-64.1c-0.2-1.2-0.3-2.3-0.6-3.4c-1.4-6.9-4.2-13.1-7.4-17.2
		c-3.7-4.7-9.3-9.1-18-11.9c-5.6-1.8-12.6-3.1-21.1-3.4c-4.7-0.2-9.9-0.1-15.6,0.3c-0.8-4.3-2.2-8.6-4.5-12.6
		c-7.7-13.5-24.6-24-56.1-24c-31.9,0-50.1,10.1-60.5,20.8c-3.9,4-6.7,8.2-8.7,11.9c-4.6-0.3-9.4,0-14.2,0.7
		c-9.5,1.3-18.9,4.4-27.3,8.8c-4,2.1-7.6,4.5-10.9,7.1C27.2,54.1,23,61.1,21.7,68.8c-0.1,0.8-0.2,1.5-0.3,2.3
		C7.5,94.1,0,120.6,0,148.2c0,10.5,1.1,20.9,3.2,31c11.5,54.5,53.7,99,107.5,113.4c12.5,3.4,25.5,5.1,38.7,5.1
		c11.5,0,22.9-1.3,33.9-3.9c33.5-7.8,63.5-27.2,84.6-54.6c20.2-26.3,30.8-57.7,30.8-90.9C298.8,144.1,298.6,140.1,298.3,136.3z
		 M278.2,199.7c-8.9-31.5-42.1-31.6-42.1-31.6c12.2,25.9-8.2,45-27.5,38.4c-18.9-6.4-13.4-33.8-13.1-34.6
		c-28.4,46.3,29.9,63.3,29.9,63.3c-17.4,11-22.3,27.6-23,41.1c-6.9,2.9-14.1,5.2-21.5,6.9c-22,5.1-45.7,4.8-67.4-1.1
		c-0.8-0.2-1.5-0.4-2.3-0.7c-12.8-9.4-17.4-21.3-20-29.3c-4.4-13.4-1.9-44.2,28-44.2c33.1,0,37.9,30.3,22.4,41.9
		c-15.5,11.6-31.2-9.7-31.2-9.7c-0.7,11.3,7.2,28,31,28c23.8,0,35.3-15.3,36.9-38.9c1.6-23.6-12.3-52.6-52.1-52.6
		c-35.8,0-35.6,24.2-68.1,25.4c-32.5,1.2-33.3-43.2-4.6-43.2c28.3,0,20.7,28.9,20.5,29.6c0.6-0.3,11-6.6,9.4-25.4
		c-1.6-18.6-18.6-26.8-35.5-25.5c-10.4,0.8-29.8,8.8-34.2,38.7c-1.9-9.1-2.9-18.6-2.9-28.1c0-21.3,4.8-41.9,13.8-60.5
		c4,8,11.9,15.4,24.8,20.7c35.5,14.5,78.5,16.1,96.8,17.1s12.5,31.3,12.5,31.3c47.5-25.9,30.3-69.4,30.3-69.4s-13,16-57.7,18.3
		C84.9,108,63.6,90.3,56.8,85.3c-3.1-2.3-6.2-9.3-5-16.5c1.4-8.4,8.8-17.2,29.1-19.2c26.7-2.6,37.3,9.9,34.4,19.2
		c-1.2,3.8-4.6,7.1-10.1,8.6c-16,4.3-22.1-4.3-19.7-8.6c0.4-0.8,1.1-1.5,2.2-1.9c10.9-4.3,12.3-6.7,2-6.4
		c-7.8,0.2-13.2,3.8-15.6,8.2c-4.6,8.6,1.9,20.6,23.7,19.6c17-0.8,24.9-9.4,26.1-19.6c1.2-9.6-3.7-20.6-12.7-27.5
		c-1.3-1-2.7-1.9-4.1-2.7c5-7.9,15.8-17,41.8-17.2c35.5-0.3,50.9,14.1,50,31.5c-0.5,8-8.2,13.4-16.5,15.9c-7.2,2.2-14.7,2.2-18.3,0
		c-1.2-0.8-2-1.8-2.1-3.1c-0.7-9.5,16.1-10.8,16.1-10.8C177.6,44,149.6,42,148.9,64c-0.1,1.7,0.1,3.3,0.5,4.7
		c5,19.1,44.8,20.6,58.3,2.2c0.5-0.7,1-1.5,1.5-2.2c3.2-5.2,5.6-11.7,6.5-18.6c12.8-1.2,34.6-0.4,42.3,16.8c0.3,0.6,0.5,1.2,0.7,1.8
		c9.5,23.6-7.7,31.6-20.6,30.1c-13.1-1.5-16.8-9.4-8.8-13.1c7.4-3.4,17.7-3.6,8.5-12.5c-9.2-8.9-30.9,6.2-24.6,19.7
		c6.2,13.5,33.6,26.8,55.7,7.9c3.2-2.7,5.4-5.9,6.9-9.4c6.4,14.1,10.5,29.5,11.8,45.8c0.3,3.6,0.4,7.2,0.4,11
		C288.1,166.1,284.7,183.5,278.2,199.7z"></path>
	
		<ellipse transform="matrix(0.3827 -0.9239 0.9239 0.3827 4.8463 297.8362)" fill="#FEC000" cx="225.3" cy="145.3" rx="13.2" ry="13.2"></ellipse>
	<path fill="#FEC000" d="M23.4,127.9c-2.3,0-4.2,1.9-4.2,4.2c0,2.3,1.9,4.2,4.2,4.2c2.3,0,4.2-1.9,4.2-4.2
		C27.6,129.8,25.7,127.9,23.4,127.9z"></path>
	<path fill="#FEC000" d="M102.8,153.7c-3.6,0-6.5,2.9-6.5,6.5c0,3.6,2.9,6.5,6.5,6.5c3.6,0,6.5-2.9,6.5-6.5
		C109.3,156.6,106.4,153.7,102.8,153.7z"></path>
</g>
</svg></g>
        </g><g id="shape_NY1wkNUc4U" class="brand_name"  ref="shape_NY1wkNUc4U" key="shape_NY1wkNUc4U" transform="translate(158.37921142578,87.24073880005002) rotate(0,257.5,291.094) scale(1,1)" style="cursor:move;display:inline;opacity:1;" filter="">
            <g style="display:inline"><svg xmlns="http://www.w3.org/2000/svg" version="1.1" xmlns:xlink="http://www.w3.org/1999/xlink" width="644" height="581.594" viewBox="0 0 644 581.594" preserveAspectRatio="none" data-parent="shape_NY1wkNUc4U"><rect fill="rgba(0,0,0,0)" width="312" height="83" x="83" y="249.297"></rect><g data-width="311.974" transform="translate(83.013, 0)"><path d="M4.65-4.90L4.65-4.90Q3.90-4.90 3.03-4.57Q2.16-4.23 1.66-3.24L1.66-3.24L1.66-10.71L45.73-10.71L45.73-41.58L44.24-43.24L56.61-43.24L56.61-4.90L4.65-4.90Z" transform="translate(0 320.297) " fill="rgb(0, 0, 0)" stroke="rgb(0, 0, 0)" stroke-width="0.138" data-glyph-w="61.266000000000005" data-glyph-h="83" data-glyph-ascender="71.297" data-glyph-descender="-11.703000000000001"></path><path d="M3.15-4.81L3.15-41.58L1.66-43.24L14.03-43.24L14.03-10.71L47.23-10.71L47.23-41.58L45.73-43.24L58.10-43.24L58.10-3.24Q57.69-4.23 56.77-4.52Q55.86-4.81 55.11-4.81L55.11-4.81L3.15-4.81Z" transform="translate(61.266000000000005 320.297) " fill="rgb(0, 0, 0)" stroke="rgb(0, 0, 0)" stroke-width="0.138" data-glyph-w="62.760000000000005" data-glyph-h="83" data-glyph-ascender="71.297" data-glyph-descender="-11.703000000000001"></path><path d="M56.36-26.98L56.36-19.51Q55.94-20.50 55.07-20.83Q54.20-21.17 53.37-21.17L53.37-21.17L13.94-21.17L13.94-10.71L58.02-10.71L58.02-3.24Q57.69-4.23 56.73-4.57Q55.78-4.90 55.03-4.90L55.03-4.90L3.24-4.90L3.24-41.58L1.66-43.24L58.02-43.24L58.02-35.77Q57.69-36.85 56.73-37.18Q55.78-37.52 55.03-37.52L55.03-37.52L13.94-37.52L13.94-26.98L56.36-26.98Z" transform="translate(124.02600000000001 320.297) " fill="rgb(0, 0, 0)" stroke="rgb(0, 0, 0)" stroke-width="0.138" data-glyph-w="62.677" data-glyph-h="83" data-glyph-ascender="71.297" data-glyph-descender="-11.703000000000001"></path><path d="M57.93-10.71L57.93-3.24Q57.60-4.23 56.65-4.52Q55.69-4.81 54.95-4.81L54.95-4.81L1.66-4.81L1.66-10.71L40.34-37.43L3.07-37.43L3.07-44.65L5.64-43.24L57.93-43.24L57.93-37.52L19.67-10.71L57.93-10.71Z" transform="translate(186.703 320.297) " fill="rgb(0, 0, 0)" stroke="rgb(0, 0, 0)" stroke-width="0.138" data-glyph-w="62.594" data-glyph-h="83" data-glyph-ascender="71.297" data-glyph-descender="-11.703000000000001"></path><path d="M56.36-26.98L56.36-19.51Q55.94-20.50 55.07-20.83Q54.20-21.17 53.37-21.17L53.37-21.17L13.94-21.17L13.94-10.71L58.02-10.71L58.02-3.24Q57.69-4.23 56.73-4.57Q55.78-4.90 55.03-4.90L55.03-4.90L3.24-4.90L3.24-41.58L1.66-43.24L58.02-43.24L58.02-35.77Q57.69-36.85 56.73-37.18Q55.78-37.52 55.03-37.52L55.03-37.52L13.94-37.52L13.94-26.98L56.36-26.98Z" transform="translate(249.297 320.297) " fill="rgb(0, 0, 0)" stroke="rgb(0, 0, 0)" stroke-width="0.138" data-glyph-w="62.677" data-glyph-h="83" data-glyph-ascender="71.297" data-glyph-descender="-11.703000000000001"></path></g></svg></g>
        </g>
  </svg>